<svg data-v-0dd9719b="" version="1.0" xmlns="http://www.w3.org/2000/svg" xmlns:xlink="http://www.w3.org/1999/xlink" width="100%" height="100%" viewBox="0 0 340.000000 250.000000" preserveAspectRatio="xMidYMid meet" color-interpolation-filters="sRGB" style="margin: auto;"> <rect data-v-0dd9719b="" x="0" y="0" width="100%" height="100%" fill="#ffffff" fill-opacity="1" class="background"></rect> <rect data-v-0dd9719b="" x="0" y="0" width="100%" height="100%" fill="url(#watermark)" fill-opacity="1" class="watermarklayer"></rect> <g data-v-0dd9719b="" fill="#333" class="icon-text-wrapper icon-svg-group iconsvg" transform="translate(57.19999694824219,12.199996948242188)"><g class="iconsvg-imagesvg" transform="translate(0,0)"><g><rect fill="#333" fill-opacity="0" stroke-width="2" x="0" y="0" width="225.60000000000014" height="225.60000000000014" class="image-rect"></rect> <svg x="0" y="0" width="225.60000000000014" height="225.60000000000014" filtersec="colorsb5572531663" class="image-svg-svg primary" style="overflow: visible;"><svg xmlns="http://www.w3.org/2000/svg" viewBox="0 0 85.25999450683594 85.25999450683594"><g fill-rule="evenodd"><path fill="#0198cd" d="M79.15 33.16v-9.81H61.37l-2.56 2.56h17.78v4.69h-26.1l20.2-20.2L60.3.02h-3.61L67.07 10.4l-20.2 20.2v2.56h32.28z"></path><path fill="#5bc8e5" d="M10.11 23.5l-6.93 6.94 12.57 12.57h3.62L6.8 30.44l3.31-3.32 18.45 18.45H0v14.69l2.56 2.56V48.13h28.56l1.81-1.81L10.11 23.5zM61.76 10.11l-6.94-6.93-12.57 12.57v3.62L54.82 6.8l3.32 3.31-18.45 18.45V0H25l-2.56 2.56h14.69v28.56l1.81 1.82 22.82-22.83z"></path><path fill="#0198cd" d="M6.11 52.1v9.81h17.78l2.56-2.56H8.67v-4.7h26.09l-20.2 20.2 10.39 10.39h3.62L18.18 74.85l20.2-20.2V52.1H6.11zM33.16 6.11h-9.81v17.78l2.56 2.56V8.67h4.69v26.1L10.4 14.56.02 24.95v3.62L10.4 18.18l20.2 20.2h2.56V6.11z"></path><path fill="#5bc8e5" d="M23.5 75.14l6.94 6.94 12.57-12.57v-3.62L30.44 78.46l-3.32-3.32 18.45-18.45v28.57h14.69l2.56-2.56H48.13V54.13l-1.81-1.81L23.5 75.14z"></path><path fill="#0198cd" d="M52.09 79.15h9.82V61.37l-2.57-2.56v17.78h-4.69v-26.1l20.2 20.2 10.39-10.38v-3.62L74.85 67.07l-20.2-20.2h-2.56v32.28z"></path><path fill="#5bc8e5" d="M75.14 61.76l6.94-6.94-12.57-12.57h-3.62l12.57 12.57-3.32 3.32-18.45-18.45h28.57V25l-2.56-2.56v14.69H54.13l-1.81 1.81 22.82 22.82z"></path></g></svg></svg> <!----></g></g> <g transform="translate(240.60000610351562,120.80000305175781)"><g data-gra="path-name" fill-rule="" class="tp-name iconsvg-namesvg"><g transform="scale(1)"><g><path d="" transform="translate(0, 0)"></path></g> <!----> <!----> <!----> <!----> <!----> <!----> <!----></g></g> <!----></g></g><defs v-gra="od"></defs></svg>