<svg data-v-0dd9719b="" version="1.0" xmlns="http://www.w3.org/2000/svg" xmlns:xlink="http://www.w3.org/1999/xlink" width="100%" height="100%" viewBox="0 0 340.000000 250.000000" preserveAspectRatio="xMidYMid meet" color-interpolation-filters="sRGB" style="margin: auto;"> <rect data-v-0dd9719b="" x="0" y="0" width="100%" height="100%" fill="transparent" fill-opacity="0" class="background"></rect><g data-v-0dd9719b="" fill="#000000" class="icon-text-wrapper icon-svg-group iconsvg" transform="translate(57.19999694824219,12.199996948242188)"><g class="iconsvg-imagesvg" transform="translate(0,0)"><g><rect fill="transparent" fill-opacity="0" stroke-width="2" x="0" y="0" width="225.60000000000014" height="225.60000000000014" class="image-rect"></rect> <svg x="0" y="0" width="225.60000000000014" height="225.60000000000014" filtersec="colorsb9082407188" class="image-svg-svg primary" style="overflow: visible;"><svg xmlns="http://www.w3.org/2000/svg" version="1" viewBox="10 10 80 80"><path d="M68.333 46.667c-11.969 0-21.667 9.694-21.667 21.667C46.667 80.3 56.364 90 68.333 90 80.303 90 90 80.3 90 68.333c0-11.973-9.697-21.666-21.667-21.666zm0 36.666c-8.287 0-15-6.715-15-15 0-8.287 6.713-15 15-15 8.288 0 15 6.713 15 15 0 8.285-6.712 15-15 15z" fill="#000000"></path><path d="M76.667 10c-7.363 0-13.334 5.972-13.334 13.335 0 7.362-5.97 13.332-13.333 13.332s-13.333-5.97-13.333-13.333S30.697 10 23.333 10C15.972 10 10 15.97 10 23.333s5.972 13.333 13.333 13.333c7.363 0 13.332 5.97 13.332 13.333s-5.968 13.333-13.332 13.333S10 69.304 10 76.667 15.97 90 23.333 90s13.333-5.974 13.333-13.333c0-22.087 17.907-40 40-40.002C84.03 36.665 90 30.695 90 23.332 90 15.972 84.03 10 76.667 10zM23.333 30a6.666 6.666 0 0 1-6.667-6.667 6.665 6.665 0 0 1 6.667-6.667A6.665 6.665 0 0 1 30 23.333 6.666 6.666 0 0 1 23.333 30zm0 53.333a6.668 6.668 0 1 1 .001-13.335 6.668 6.668 0 0 1-.001 13.335zM76.667 30A6.665 6.665 0 0 1 70 23.333a6.663 6.663 0 0 1 6.667-6.667 6.663 6.663 0 0 1 6.666 6.667A6.664 6.664 0 0 1 76.667 30z" fill="#a04732"></path></svg></svg> <!----></g></g> <g transform="translate(240.60000610351562,120.80000305175781)"><g data-gra="path-name" fill-rule="" class="tp-name iconsvg-namesvg"><g transform="scale(1)"><g><path d="" transform="translate(0, 0)"></path></g> <!----> <!----> <!----> <!----> <!----> <!----> <!----></g></g> <!----></g></g><defs v-gra="od"></defs></svg>